<svg xmlns="http://www.w3.org/2000/svg" xmlns:v="https://svgstorm.com"
viewBox = "0 0 483 157"
width="483"
height="157">
<g fill="None" fill-opacity="0.0" stroke="#000000" stroke-opacity="0.00" stroke-width="0.3"><path d="
M 0.00 157.00 
L 483.00 157.00
L 483.00 0.00
L 0.00 0.00
L 0.00 157.00
M 396.00 10.00 
C 395.88 10.47 396.00 11.00 396.00 11.00
C 397.59 14.87 404.16 11.95 407.00 11.00
C 410.22 9.93 413.29 9.65 417.00 9.00
C 418.30 8.77 420.11 8.08 422.00 8.00
C 443.67 7.13 461.22 19.22 472.00 37.00
C 474.89 41.76 476.06 44.20 477.00 50.00
C 477.52 53.20 477.89 57.18 478.00 61.00
C 478.18 62.54 479.11 64.78 479.00 67.00
C 479.13 70.43 477.52 75.07 477.00 78.00
C 474.20 93.62 461.70 108.06 447.00 114.00
C 447.39 114.87 448.41 115.92 448.00 117.00
C 452.89 117.48 461.40 121.85 453.77 125.77 C 446.14 129.69 444.26 130.01 435.93 131.93 C 427.59 133.84 432.45 136.49 441.07 137.93 C 449.69 139.37 446.08 147.96 438.93 147.93 C 431.77 147.89 423.29 150.17 417.00 149.00 C 410.71 147.83 400.70 148.82 401.78 141.78 C 402.86 134.73 416.06 139.77 417.00 133.00
C 405.08 130.47 392.84 126.54 382.77 119.23 C 372.70 111.92 366.11 103.35 360.70 92.30 C 355.28 81.26 353.99 61.91 355.93 49.93 C 357.86 37.94 365.09 25.62 372.25 17.25 C 379.40 8.88 396.43 -5.40 396.00 10.00
M 109.00 30.00 
C 104.98 34.72 100.19 43.20 93.75 45.75 C 87.31 48.30 81.44 36.68 72.98 37.02 C 64.51 37.37 54.25 37.09 47.75 43.75 C 41.26 50.42 39.33 59.21 40.00 68.00 C 40.67 76.79 44.46 83.86 51.75 88.25 C 59.03 92.65 70.64 94.42 78.67 90.67 C 86.71 86.93 79.56 69.30 82.00 62.00
C 90.33 62.00 98.67 62.00 107.00 62.00
C 106.44 73.16 107.75 88.23 107.00 99.00 C 106.25 109.77 93.57 110.67 84.93 113.93 C 76.28 117.18 60.21 116.77 51.00 115.00 C 41.79 113.23 33.74 108.62 26.75 102.25 C 19.77 95.87 15.27 88.82 12.22 79.78 C 9.18 70.73 10.02 56.96 12.93 47.93 C 15.83 38.90 20.37 32.30 27.75 25.75 C 35.14 19.20 43.22 15.90 53.01 14.01 C 62.79 12.12 76.98 12.54 86.22 15.78 C 95.47 19.01 102.20 22.65 109.00 30.00
M 136.00 114.00 
C 136.00 81.00 136.00 48.00 136.00 15.00
C 163.45 16.58 202.91 8.35 223.75 28.25 C 244.59 48.15 245.12 80.04 224.25 100.25 C 203.37 120.45 163.67 112.65 136.00 114.00
M 363.00 114.00 
C 354.74 114.43 347.35 113.43 339.00 114.00 C 330.65 114.57 330.26 107.45 327.68 100.32 C 325.09 93.19 316.48 94.89 309.00 95.00 C 301.52 95.11 291.69 94.92 284.00 95.00
C 282.13 101.47 278.60 107.40 277.00 114.00
C 267.00 114.00 257.00 114.00 247.00 114.00
C 251.15 106.44 253.45 97.94 257.32 90.32 C 261.19 82.70 264.45 73.53 267.98 65.98 C 271.50 58.42 275.20 48.84 278.92 41.92 C 282.65 35.01 285.29 23.11 289.77 17.77 C 294.26 12.43 314.98 12.16 319.92 17.08 C 324.85 22.01 326.95 34.34 330.92 41.08 C 334.89 47.82 337.84 57.83 341.77 65.23 C 345.70 72.63 348.32 82.04 352.31 89.69 C 356.29 97.35 359.01 106.24 363.00 114.00
M 121.00 97.00 
C 131.26 98.49 127.32 115.77 117.33 112.67 C 107.34 109.57 111.60 95.64 121.00 97.00
M 240.00 97.00 
C 249.04 99.29 246.06 115.39 236.00 113.00 C 225.93 110.61 229.46 94.33 240.00 97.00
M 173.00 138.00 
C 172.95 138.15 172.00 138.00 172.00 138.00
C 168.54 140.56 162.34 137.34 159.00 140.00
C 162.00 143.21 166.77 142.19 170.00 140.00
C 173.30 148.69 155.99 147.71 154.00 141.00
C 148.60 147.68 139.76 145.82 132.00 146.00
C 132.00 137.67 132.00 129.33 132.00 121.00
C 140.38 120.69 152.93 119.53 155.00 130.00
C 159.73 125.79 171.12 124.81 172.00 133.00
C 172.02 133.10 173.00 133.00 173.00 133.00
C 173.00 128.33 173.00 123.67 173.00 119.00
C 179.28 117.45 176.34 125.44 177.00 129.00
C 181.12 125.97 188.44 125.91 191.00 131.00
C 195.82 127.36 205.02 123.97 209.00 131.00
C 209.91 128.24 211.06 125.93 215.00 127.00
C 216.07 130.86 212.06 142.09 219.03 141.97 C 225.99 141.85 223.69 131.35 224.00 127.00
C 228.37 127.83 232.43 127.95 231.00 122.00
C 238.11 119.79 233.75 130.79 241.00 128.00
C 242.44 132.32 237.18 129.81 236.00 132.00
C 236.00 135.33 236.00 138.67 236.00 142.00
C 239.10 141.35 242.07 142.23 241.00 146.00
C 229.25 149.72 231.51 137.43 230.00 131.00
C 227.76 135.09 229.60 141.16 229.00 146.00
C 223.88 142.84 212.64 150.49 211.00 141.00
C 207.38 147.57 196.18 148.04 192.00 142.00
C 187.48 149.75 178.43 143.14 173.00 146.00
C 173.00 143.33 173.00 140.67 173.00 138.00
M 315.00 129.00 
C 315.10 129.09 315.75 128.24 316.00 128.00
C 317.31 126.76 319.06 126.93 321.00 127.00
C 321.00 135.67 321.00 144.33 321.00 153.00
C 315.05 154.93 315.79 148.97 316.00 145.00
C 316.00 144.96 315.00 145.00 315.00 145.00
C 309.73 146.68 302.66 147.15 301.00 140.00
C 299.09 142.13 301.27 147.67 296.00 146.00
C 296.00 141.00 296.00 136.00 296.00 131.00
C 288.43 131.52 290.04 140.53 290.00 146.00
C 281.34 147.76 286.30 136.00 285.00 131.00
C 279.11 132.48 283.23 141.40 282.00 146.00
C 279.00 146.00 276.00 146.00 273.00 146.00
C 272.31 138.28 263.36 141.72 258.00 141.00
C 258.63 144.79 255.60 146.96 252.00 146.00
C 256.56 137.93 257.01 121.25 268.00 121.00
C 269.62 129.08 274.90 136.02 277.00 144.00
C 277.96 140.93 280.40 130.91 275.00 131.00
C 276.66 127.59 277.43 123.33 280.25 120.25 C 283.07 117.17 291.37 119.35 288.00 124.00
C 285.18 123.13 280.91 124.82 283.00 128.00
C 289.26 128.79 300.42 123.16 301.00 133.00
C 301.80 126.98 311.50 124.45 315.00 129.00
M 300.00 119.00 
C 302.20 120.25 299.99 126.41 296.77 124.21 C 293.55 122.01 296.69 117.12 300.00 119.00
M 32.00 133.00 
C 41.03 135.60 34.82 146.86 27.00 146.00 C 19.17 145.13 12.84 142.93 13.00 134.00 C 13.17 125.06 17.18 122.17 26.00 121.00 C 34.83 119.84 37.88 129.89 28.97 126.03 C 20.07 122.17 15.96 131.42 18.93 138.07 C 21.89 144.73 36.11 142.46 32.00 133.00
M 63.00 131.00 
C 63.91 128.24 65.06 125.93 69.00 127.00
C 69.91 130.81 66.27 142.16 73.03 141.97 C 79.79 141.79 77.68 131.23 78.00 127.00
C 87.48 125.96 81.19 140.07 83.00 146.00
C 77.40 143.92 66.04 149.84 65.00 141.00
C 59.60 151.96 39.46 144.04 46.00 132.00
C 39.48 132.97 42.80 141.44 42.00 146.00
C 32.52 147.04 38.81 132.93 37.00 127.00
C 44.90 130.82 56.16 122.47 63.00 131.00
M 103.00 131.00 
C 109.27 122.79 124.76 127.43 121.00 139.00
C 116.83 139.64 111.34 137.71 108.00 140.00
C 109.72 143.25 122.71 140.00 118.74 144.75 C 114.77 149.50 106.27 145.35 104.00 142.00
C 100.33 146.70 94.19 146.90 89.00 145.00
C 89.24 149.04 89.98 154.80 84.00 153.00
C 84.00 144.33 84.00 135.67 84.00 127.00
C 89.76 129.91 98.25 123.27 103.00 131.00
M 327.00 127.00 
C 327.78 130.79 324.42 142.19 331.03 141.97 C 337.63 141.76 335.60 131.17 336.00 127.00
C 339.78 125.76 340.54 128.98 340.00 132.00
C 345.28 123.54 362.92 125.97 359.00 139.00
C 354.67 139.00 350.33 139.00 346.00 139.00
C 346.29 144.25 361.63 139.76 355.91 144.92 C 350.20 150.08 342.81 144.52 341.00 140.00
C 341.73 146.57 331.07 147.20 325.33 145.67 C 319.59 144.14 319.52 124.03 327.00 127.00 Z"/>
</g>
<g fill="None" fill-opacity="0.0" stroke="#D8DCE0" stroke-opacity="0.84" stroke-width="0.3"><path d="
M 448.00 117.00 
C 447.97 117.00 446.77 118.14 446.00 118.00
C 438.91 127.54 419.51 125.53 407.78 123.22 C 396.05 120.91 386.69 114.42 378.25 105.75 C 369.80 97.08 365.00 86.16 362.67 74.33 C 360.35 62.50 362.87 44.90 368.92 34.92 C 374.97 24.95 382.11 15.11 393.00 11.00
C 393.68 10.74 394.78 10.10 396.00 10.00
C 396.43 -5.40 379.40 8.88 372.25 17.25 C 365.09 25.62 357.86 37.94 355.93 49.93 C 353.99 61.91 355.28 81.26 360.70 92.30 C 366.11 103.35 372.70 111.92 382.77 119.23 C 392.84 126.54 405.08 130.47 417.00 133.00
C 416.06 139.77 402.86 134.73 401.78 141.78 C 400.70 148.82 410.71 147.83 417.00 149.00 C 423.29 150.17 431.77 147.89 438.93 147.93 C 446.08 147.96 449.69 139.37 441.07 137.93 C 432.45 136.49 427.59 133.84 435.93 131.93 C 444.26 130.01 446.14 129.69 453.77 125.77 C 461.40 121.85 452.89 117.48 448.00 117.00 Z"/>
</g>
<g fill="None" fill-opacity="0.0" stroke="#7EB2D1" stroke-opacity="0.10" stroke-width="0.3"><path d="
M 417.00 9.00 
C 417.22 8.86 421.93 8.01 422.00 8.00
C 420.11 8.08 418.30 8.77 417.00 9.00 Z"/>
</g>
<g fill="None" fill-opacity="0.0" stroke="#56B1E7" stroke-opacity="0.98" stroke-width="0.3"><path d="
M 417.00 9.00 
C 416.79 9.14 416.59 11.72 416.00 12.00
C 419.88 12.67 422.77 15.74 422.00 20.00
C 420.22 18.53 417.93 21.04 416.00 19.00
C 417.43 22.53 418.60 25.69 417.00 30.00
C 414.80 28.41 415.82 27.07 413.00 26.00
C 407.80 29.53 399.06 29.67 394.00 35.00
C 393.71 28.43 381.77 30.25 384.00 37.00
C 390.77 34.27 387.57 40.70 388.00 45.00
C 384.34 43.15 381.72 33.42 377.00 34.00
C 371.92 42.12 368.18 49.76 368.00 60.00
C 368.16 62.04 368.15 65.02 368.00 67.00
C 368.62 102.52 409.59 130.02 443.00 116.00
C 444.11 115.53 445.63 114.56 447.00 114.00
C 461.70 108.06 474.20 93.62 477.00 78.00
C 476.96 77.65 476.09 77.25 476.00 77.00
C 471.61 76.20 469.11 79.78 466.00 82.00
C 465.83 79.71 466.82 67.86 462.92 68.08 C 459.01 68.31 454.36 74.12 450.00 73.00
C 451.42 75.64 441.65 82.91 439.74 87.74 C 437.84 92.57 423.41 100.28 423.01 91.99 C 422.61 83.70 427.56 75.77 429.00 68.00
C 422.99 64.91 413.15 61.54 420.00 53.00
C 422.54 48.08 429.80 47.39 429.00 42.00
C 430.27 41.58 432.03 38.65 433.00 41.00
C 434.77 39.02 437.37 35.90 437.00 32.00
C 439.71 33.76 439.44 39.46 445.00 36.00
C 437.73 28.93 463.16 29.60 457.00 37.00
C 462.25 35.18 468.19 40.74 472.00 37.00
C 461.22 19.22 443.67 7.13 422.00 8.00
C 421.93 8.01 417.22 8.86 417.00 9.00
M 384.00 92.00 
C 377.37 84.58 387.28 76.37 386.78 68.78 C 386.28 61.19 384.93 52.52 388.00 46.00
C 391.99 46.06 400.64 48.22 401.25 53.75 C 401.87 59.27 410.61 63.73 407.74 68.74 C 404.87 73.75 399.83 76.02 395.25 79.25 C 390.67 82.48 384.56 85.23 384.00 92.00
M 445.00 88.00 
C 444.30 91.01 441.04 94.37 438.00 95.00
C 438.68 91.38 441.42 88.75 445.00 88.00 Z"/>
</g>
<g fill="None" fill-opacity="0.0" stroke="#B9DEF1" stroke-opacity="0.96" stroke-width="0.3"><path d="
M 407.00 11.00 
C 412.51 12.01 406.86 15.30 404.00 15.00
C 403.40 18.12 407.18 19.66 406.00 23.00
C 410.65 22.27 414.51 18.43 417.00 24.00
C 416.16 25.11 414.54 26.04 413.00 26.00
C 415.82 27.07 414.80 28.41 417.00 30.00
C 418.60 25.69 417.43 22.53 416.00 19.00
C 417.93 21.04 420.22 18.53 422.00 20.00
C 422.77 15.74 419.88 12.67 416.00 12.00
C 416.59 11.72 416.79 9.14 417.00 9.00
C 413.29 9.65 410.22 9.93 407.00 11.00
M 418.00 16.00 
C 415.40 19.20 414.65 13.69 418.00 16.00
M 414.00 18.00 
C 411.32 22.21 405.49 21.01 405.00 16.00
C 408.12 15.91 411.85 15.87 414.00 18.00 Z"/>
</g>
<g fill="None" fill-opacity="0.0" stroke="#BEBDBE" stroke-opacity="0.57" stroke-width="0.3"><path d="
M 393.00 11.00 
C 392.70 12.52 393.95 13.30 394.00 14.00
C 394.57 13.11 395.69 12.25 396.00 11.00
C 396.00 11.00 395.88 10.47 396.00 10.00
C 394.78 10.10 393.68 10.74 393.00 11.00 Z"/>
</g>
<g fill="None" fill-opacity="0.0" stroke="#000000" stroke-opacity="0.00" stroke-width="0.3"><path d="
M 446.00 118.00 
C 445.20 117.86 444.55 116.17 443.00 116.00
C 409.59 130.02 368.62 102.52 368.00 67.00
C 367.96 64.67 367.96 62.33 368.00 60.00
C 368.18 49.76 371.92 42.12 377.00 34.00
C 381.59 26.66 389.54 20.97 394.00 14.00
C 393.95 13.30 392.70 12.52 393.00 11.00
C 382.11 15.11 374.97 24.95 368.92 34.92 C 362.87 44.90 360.35 62.50 362.67 74.33 C 365.00 86.16 369.80 97.08 378.25 105.75 C 386.69 114.42 396.05 120.91 407.78 123.22 C 419.51 125.53 438.91 127.54 446.00 118.00 Z"/>
</g>
<g fill="None" fill-opacity="0.0" stroke="#E3EDF2" stroke-opacity="0.94" stroke-width="0.3"><path d="
M 394.00 14.00 
C 389.54 20.97 381.59 26.66 377.00 34.00
C 381.72 33.42 384.34 43.15 388.00 45.00
C 387.57 40.70 390.77 34.27 384.00 37.00
C 381.77 30.25 393.71 28.43 394.00 35.00
C 399.06 29.67 407.80 29.53 413.00 26.00
C 414.54 26.04 416.16 25.11 417.00 24.00
C 414.51 18.43 410.65 22.27 406.00 23.00
C 407.18 19.66 403.40 18.12 404.00 15.00
C 406.86 15.30 412.51 12.01 407.00 11.00
C 404.16 11.95 397.59 14.87 396.00 11.00
C 395.69 12.25 394.57 13.11 394.00 14.00 Z"/>
</g>
<g fill="None" fill-opacity="0.0" stroke="#3E94C8" stroke-opacity="0.96" stroke-width="0.3"><path d="
M 109.00 30.00 
C 102.20 22.65 95.47 19.01 86.22 15.78 C 76.98 12.54 62.79 12.12 53.01 14.01 C 43.22 15.90 35.14 19.20 27.75 25.75 C 20.37 32.30 15.83 38.90 12.93 47.93 C 10.02 56.96 9.18 70.73 12.22 79.78 C 15.27 88.82 19.77 95.87 26.75 102.25 C 33.74 108.62 41.79 113.23 51.00 115.00 C 60.21 116.77 76.28 117.18 84.93 113.93 C 93.57 110.67 106.25 109.77 107.00 99.00 C 107.75 88.23 106.44 73.16 107.00 62.00
C 98.67 62.00 90.33 62.00 82.00 62.00
C 79.56 69.30 86.71 86.93 78.67 90.67 C 70.64 94.42 59.03 92.65 51.75 88.25 C 44.46 83.86 40.67 76.79 40.00 68.00 C 39.33 59.21 41.26 50.42 47.75 43.75 C 54.25 37.09 64.51 37.37 72.98 37.02 C 81.44 36.68 87.31 48.30 93.75 45.75 C 100.19 43.20 104.98 34.72 109.00 30.00 Z"/>
</g>
<g fill="None" fill-opacity="0.0" stroke="#3D94C8" stroke-opacity="0.97" stroke-width="0.3"><path d="
M 136.00 114.00 
C 163.67 112.65 203.37 120.45 224.25 100.25 C 245.12 80.04 244.59 48.15 223.75 28.25 C 202.91 8.35 163.45 16.58 136.00 15.00
C 136.00 48.00 136.00 81.00 136.00 114.00
M 165.00 91.00 
C 165.00 73.33 165.00 55.67 165.00 38.00
C 185.32 35.25 209.52 39.84 209.99 64.01 C 210.46 88.17 185.75 94.70 165.00 91.00 Z"/>
</g>
<g fill="None" fill-opacity="0.0" stroke="#3E94C8" stroke-opacity="0.97" stroke-width="0.3"><path d="
M 363.00 114.00 
C 359.01 106.24 356.29 97.35 352.31 89.69 C 348.32 82.04 345.70 72.63 341.77 65.23 C 337.84 57.83 334.89 47.82 330.92 41.08 C 326.95 34.34 324.85 22.01 319.92 17.08 C 314.98 12.16 294.26 12.43 289.77 17.77 C 285.29 23.11 282.65 35.01 278.92 41.92 C 275.20 48.84 271.50 58.42 267.98 65.98 C 264.45 73.53 261.19 82.70 257.32 90.32 C 253.45 97.94 251.15 106.44 247.00 114.00
C 257.00 114.00 267.00 114.00 277.00 114.00
C 278.60 107.40 282.13 101.47 284.00 95.00
C 291.69 94.92 301.52 95.11 309.00 95.00 C 316.48 94.89 325.09 93.19 327.68 100.32 C 330.26 107.45 330.65 114.57 339.00 114.00 C 347.35 113.43 354.74 114.43 363.00 114.00
M 317.00 74.00 
C 309.00 74.00 301.00 74.00 293.00 74.00
C 295.80 63.73 301.51 54.36 304.00 44.00
C 309.59 52.91 312.56 64.11 317.00 74.00 Z"/>
</g>
<g fill="None" fill-opacity="0.0" stroke="#69A9C7" stroke-opacity="1.00" stroke-width="0.3"><path d="
M 418.00 16.00 
C 414.65 13.69 415.40 19.20 418.00 16.00 Z"/>
</g>
<g fill="None" fill-opacity="0.0" stroke="#62B2DF" stroke-opacity="1.00" stroke-width="0.3"><path d="
M 414.00 18.00 
C 411.85 15.87 408.12 15.91 405.00 16.00
C 405.49 21.01 411.32 22.21 414.00 18.00 Z"/>
</g>
<g fill="None" fill-opacity="0.0" stroke="#E5EEF2" stroke-opacity="0.99" stroke-width="0.3"><path d="
M 433.00 41.00 
C 425.82 49.07 443.92 37.86 446.00 48.00
C 449.95 44.81 455.43 46.51 456.00 52.00
C 447.33 49.48 453.80 52.90 452.00 57.00 C 450.19 61.10 449.21 65.58 450.00 71.00
C 453.28 71.39 456.16 70.29 459.00 69.00
C 459.06 65.87 454.49 65.81 456.00 62.00
C 462.28 65.13 469.20 70.70 467.00 79.00
C 468.93 78.34 469.67 75.61 472.00 76.00
C 476.11 70.12 476.72 56.62 477.00 50.00
C 476.06 44.20 474.89 41.76 472.00 37.00
C 468.19 40.74 462.25 35.18 457.00 37.00
C 463.16 29.60 437.73 28.93 445.00 36.00
C 439.44 39.46 439.71 33.76 437.00 32.00
C 437.37 35.90 434.77 39.02 433.00 41.00
M 461.00 58.00 
C 457.53 58.14 459.56 53.15 459.00 51.00
C 463.70 49.93 459.88 55.38 461.00 58.00 Z"/>
</g>
<g fill="None" fill-opacity="0.0" stroke="#000000" stroke-opacity="0.00" stroke-width="0.3"><path d="
M 165.00 91.00 
C 185.75 94.70 210.46 88.17 209.99 64.01 C 209.52 39.84 185.32 35.25 165.00 38.00
C 165.00 55.67 165.00 73.33 165.00 91.00 Z"/>
</g>
<g fill="None" fill-opacity="0.0" stroke="#B3DAEE" stroke-opacity="1.00" stroke-width="0.3"><path d="
M 420.00 53.00 
C 425.13 46.81 438.70 43.76 440.00 55.00
C 443.39 54.05 445.65 56.15 448.00 58.00
C 446.67 62.63 445.73 69.78 450.00 73.00
C 454.36 74.12 459.01 68.31 462.92 68.08 C 466.82 67.86 465.83 79.71 466.00 82.00
C 469.11 79.78 471.61 76.20 476.00 77.00
C 475.65 76.04 475.69 74.90 475.00 74.00
C 473.87 74.57 473.88 76.52 472.00 76.00
C 469.67 75.61 468.93 78.34 467.00 79.00
C 469.20 70.70 462.28 65.13 456.00 62.00
C 454.49 65.81 459.06 65.87 459.00 69.00
C 456.16 70.29 453.28 71.39 450.00 71.00
C 449.21 65.58 450.19 61.10 452.00 57.00 C 453.80 52.90 447.33 49.48 456.00 52.00
C 455.43 46.51 449.95 44.81 446.00 48.00
C 443.92 37.86 425.82 49.07 433.00 41.00
C 432.03 38.65 430.27 41.58 429.00 42.00
C 429.80 47.39 422.54 48.08 420.00 53.00
M 451.00 54.00 
C 449.69 61.21 444.50 51.23 441.00 54.00
C 439.75 49.60 437.43 47.26 434.00 45.00
C 443.08 42.51 443.19 52.18 451.00 54.00 Z"/>
</g>
<g fill="None" fill-opacity="0.0" stroke="#000000" stroke-opacity="0.00" stroke-width="0.3"><path d="
M 317.00 74.00 
C 312.56 64.11 309.59 52.91 304.00 44.00
C 301.51 54.36 295.80 63.73 293.00 74.00
C 301.00 74.00 309.00 74.00 317.00 74.00 Z"/>
</g>
<g fill="None" fill-opacity="0.0" stroke="#67B2DF" stroke-opacity="1.00" stroke-width="0.3"><path d="
M 451.00 54.00 
C 443.19 52.18 443.08 42.51 434.00 45.00
C 437.43 47.26 439.75 49.60 441.00 54.00
C 444.50 51.23 449.69 61.21 451.00 54.00 Z"/>
</g>
<g fill="None" fill-opacity="0.0" stroke="#DEEDF4" stroke-opacity="1.00" stroke-width="0.3"><path d="
M 384.00 92.00 
C 384.56 85.23 390.67 82.48 395.25 79.25 C 399.83 76.02 404.87 73.75 407.74 68.74 C 410.61 63.73 401.87 59.27 401.25 53.75 C 400.64 48.22 391.99 46.06 388.00 46.00
C 384.93 52.52 386.28 61.19 386.78 68.78 C 387.28 76.37 377.37 84.58 384.00 92.00 Z"/>
</g>
<g fill="None" fill-opacity="0.0" stroke="#E5EEF2" stroke-opacity="1.00" stroke-width="0.3"><path d="
M 420.00 53.00 
C 413.15 61.54 422.99 64.91 429.00 68.00
C 427.56 75.77 422.61 83.70 423.01 91.99 C 423.41 100.28 437.84 92.57 439.74 87.74 C 441.65 82.91 451.42 75.64 450.00 73.00
C 445.73 69.78 446.67 62.63 448.00 58.00
C 445.65 56.15 443.39 54.05 440.00 55.00
C 438.70 43.76 425.13 46.81 420.00 53.00 Z"/>
</g>
<g fill="None" fill-opacity="0.0" stroke="#C0C6CF" stroke-opacity="0.86" stroke-width="0.3"><path d="
M 472.00 76.00 
C 473.88 76.52 473.87 74.57 475.00 74.00
C 475.69 74.90 475.65 76.04 476.00 77.00
C 476.09 77.25 476.96 77.65 477.00 78.00
C 477.52 75.07 479.13 70.43 479.00 67.00
C 478.95 65.77 478.05 62.91 478.00 61.00
C 477.89 57.18 477.52 53.20 477.00 50.00
C 476.72 56.62 476.11 70.12 472.00 76.00 Z"/>
</g>
<g fill="None" fill-opacity="0.0" stroke="#8EB8CF" stroke-opacity="1.00" stroke-width="0.3"><path d="
M 461.00 58.00 
C 459.88 55.38 463.70 49.93 459.00 51.00
C 459.56 53.15 457.53 58.14 461.00 58.00 Z"/>
</g>
<g fill="None" fill-opacity="0.0" stroke="#8AC1E5" stroke-opacity="0.76" stroke-width="0.3"><path d="
M 368.00 67.00 
C 368.15 65.02 368.16 62.04 368.00 60.00
C 367.96 62.33 367.96 64.67 368.00 67.00 Z"/>
</g>
<g fill="None" fill-opacity="0.0" stroke="#FFFFFF" stroke-opacity="0.00" stroke-width="0.3"><path d="
M 479.00 67.00 
C 479.11 64.78 478.18 62.54 478.00 61.00
C 478.05 62.91 478.95 65.77 479.00 67.00 Z"/>
</g>
<g fill="None" fill-opacity="0.0" stroke="#BFEEFE" stroke-opacity="1.00" stroke-width="0.3"><path d="
M 445.00 88.00 
C 441.42 88.75 438.68 91.38 438.00 95.00
C 441.04 94.37 444.30 91.01 445.00 88.00 Z"/>
</g>
<g fill="None" fill-opacity="0.0" stroke="#3F8FBF" stroke-opacity="0.88" stroke-width="0.3"><path d="
M 121.00 97.00 
C 111.60 95.64 107.34 109.57 117.33 112.67 C 127.32 115.77 131.26 98.49 121.00 97.00 Z"/>
</g>
<g fill="None" fill-opacity="0.0" stroke="#3F8FC0" stroke-opacity="0.88" stroke-width="0.3"><path d="
M 240.00 97.00 
C 229.46 94.33 225.93 110.61 236.00 113.00 C 246.06 115.39 249.04 99.29 240.00 97.00 Z"/>
</g>
<g fill="None" fill-opacity="0.0" stroke="#77A3BA" stroke-opacity="0.19" stroke-width="0.3"><path d="
M 443.00 116.00 
C 444.55 116.17 445.20 117.86 446.00 118.00
C 446.77 118.14 447.97 117.00 448.00 117.00
C 448.41 115.92 447.39 114.87 447.00 114.00
C 445.63 114.56 444.11 115.53 443.00 116.00 Z"/>
</g>
<g fill="None" fill-opacity="0.0" stroke="#448FBD" stroke-opacity="0.83" stroke-width="0.3"><path d="
M 173.00 133.00 
C 173.00 134.67 173.00 136.33 173.00 138.00
C 173.00 140.67 173.00 143.33 173.00 146.00
C 178.43 143.14 187.48 149.75 192.00 142.00
C 196.18 148.04 207.38 147.57 211.00 141.00
C 212.64 150.49 223.88 142.84 229.00 146.00
C 229.60 141.16 227.76 135.09 230.00 131.00
C 231.51 137.43 229.25 149.72 241.00 146.00
C 242.07 142.23 239.10 141.35 236.00 142.00
C 236.00 138.67 236.00 135.33 236.00 132.00
C 237.18 129.81 242.44 132.32 241.00 128.00
C 233.75 130.79 238.11 119.79 231.00 122.00
C 232.43 127.95 228.37 127.83 224.00 127.00
C 223.69 131.35 225.99 141.85 219.03 141.97 C 212.06 142.09 216.07 130.86 215.00 127.00
C 211.06 125.93 209.91 128.24 209.00 131.00
C 205.02 123.97 195.82 127.36 191.00 131.00
C 188.44 125.91 181.12 125.97 177.00 129.00
C 176.34 125.44 179.28 117.45 173.00 119.00
C 173.00 123.67 173.00 128.33 173.00 133.00
M 185.00 131.00 
C 191.70 133.28 186.44 145.21 180.33 141.67 C 174.22 138.13 178.71 128.85 185.00 131.00
M 203.00 131.00 
C 209.39 132.84 205.57 144.90 199.00 142.00 C 192.43 139.10 196.76 129.20 203.00 131.00 Z"/>
</g>
<g fill="None" fill-opacity="0.0" stroke="#448FBD" stroke-opacity="0.82" stroke-width="0.3"><path d="
M 315.00 145.00 
C 316.16 141.56 315.92 144.03 316.00 145.00
C 315.79 148.97 315.05 154.93 321.00 153.00
C 321.00 144.33 321.00 135.67 321.00 127.00
C 319.06 126.93 317.31 126.76 316.00 128.00
C 318.26 128.57 315.57 131.27 315.00 129.00
C 311.50 124.45 301.80 126.98 301.00 133.00
C 300.42 123.16 289.26 128.79 283.00 128.00
C 280.91 124.82 285.18 123.13 288.00 124.00
C 291.37 119.35 283.07 117.17 280.25 120.25 C 277.43 123.33 276.66 127.59 275.00 131.00
C 280.40 130.91 277.96 140.93 277.00 144.00
C 274.90 136.02 269.62 129.08 268.00 121.00
C 257.01 121.25 256.56 137.93 252.00 146.00
C 255.60 146.96 258.63 144.79 258.00 141.00
C 263.36 141.72 272.31 138.28 273.00 146.00
C 276.00 146.00 279.00 146.00 282.00 146.00
C 283.23 141.40 279.11 132.48 285.00 131.00
C 286.30 136.00 281.34 147.76 290.00 146.00
C 290.04 140.53 288.43 131.52 296.00 131.00
C 296.00 136.00 296.00 141.00 296.00 146.00
C 301.27 147.67 299.09 142.13 301.00 140.00
C 302.66 147.15 309.73 146.68 315.00 145.00
M 265.00 127.00 
C 265.90 130.06 268.01 132.68 268.00 136.00
C 259.00 138.51 261.81 131.30 265.00 127.00
M 313.00 131.00 
C 319.50 133.22 314.74 145.20 308.33 141.67 C 301.92 138.14 306.60 128.82 313.00 131.00 Z"/>
</g>
<g fill="None" fill-opacity="0.0" stroke="#4889A8" stroke-opacity="0.65" stroke-width="0.3"><path d="
M 300.00 119.00 
C 296.69 117.12 293.55 122.01 296.77 124.21 C 299.99 126.41 302.20 120.25 300.00 119.00 Z"/>
</g>
<g fill="None" fill-opacity="0.0" stroke="#418CBA" stroke-opacity="0.79" stroke-width="0.3"><path d="
M 32.00 133.00 
C 36.11 142.46 21.89 144.73 18.93 138.07 C 15.96 131.42 20.07 122.17 28.97 126.03 C 37.88 129.89 34.83 119.84 26.00 121.00 C 17.18 122.17 13.17 125.06 13.00 134.00 C 12.84 142.93 19.17 145.13 27.00 146.00 C 34.82 146.86 41.03 135.60 32.00 133.00 Z"/>
</g>
<g fill="None" fill-opacity="0.0" stroke="#438EBC" stroke-opacity="0.81" stroke-width="0.3"><path d="
M 172.00 138.00 
C 171.69 137.10 171.69 133.90 172.00 133.00
C 171.12 124.81 159.73 125.79 155.00 130.00
C 152.93 119.53 140.38 120.69 132.00 121.00
C 132.00 129.33 132.00 137.67 132.00 146.00
C 139.76 145.82 148.60 147.68 154.00 141.00
C 155.99 147.71 173.30 148.69 170.00 140.00
C 166.77 142.19 162.00 143.21 159.00 140.00
C 162.34 137.34 168.54 140.56 172.00 138.00
M 137.00 142.00 
C 137.00 136.33 137.00 130.67 137.00 125.00
C 154.32 120.20 154.49 147.21 137.00 142.00
M 168.00 135.00 
C 165.00 135.00 162.00 135.00 159.00 135.00
C 158.86 129.66 168.14 129.65 168.00 135.00 Z"/>
</g>
<g fill="None" fill-opacity="0.0" stroke="#000000" stroke-opacity="0.00" stroke-width="0.3"><path d="
M 137.00 142.00 
C 154.49 147.21 154.32 120.20 137.00 125.00
C 137.00 130.67 137.00 136.33 137.00 142.00 Z"/>
</g>
<g fill="None" fill-opacity="0.0" stroke="#448FBD" stroke-opacity="0.81" stroke-width="0.3"><path d="
M 63.00 131.00 
C 56.16 122.47 44.90 130.82 37.00 127.00
C 38.81 132.93 32.52 147.04 42.00 146.00
C 42.80 141.44 39.48 132.97 46.00 132.00
C 39.46 144.04 59.60 151.96 65.00 141.00
C 66.04 149.84 77.40 143.92 83.00 146.00
C 81.19 140.07 87.48 125.96 78.00 127.00
C 77.68 131.23 79.79 141.79 73.03 141.97 C 66.27 142.16 69.91 130.81 69.00 127.00
C 65.06 125.93 63.91 128.24 63.00 131.00
M 58.00 131.00 
C 64.07 133.26 59.37 145.13 53.00 142.00 C 46.63 138.87 51.36 128.53 58.00 131.00 Z"/>
</g>
<g fill="None" fill-opacity="0.0" stroke="#428EBD" stroke-opacity="0.79" stroke-width="0.3"><path d="
M 103.00 131.00 
C 98.25 123.27 89.76 129.91 84.00 127.00
C 84.00 135.67 84.00 144.33 84.00 153.00
C 89.98 154.80 89.24 149.04 89.00 145.00
C 94.19 146.90 100.33 146.70 104.00 142.00
C 106.27 145.35 114.77 149.50 118.74 144.75 C 122.71 140.00 109.72 143.25 108.00 140.00
C 111.34 137.71 116.83 139.64 121.00 139.00
C 124.76 127.43 109.27 122.79 103.00 131.00
M 97.00 131.00 
C 102.91 133.20 98.60 144.98 92.33 141.67 C 86.06 138.36 90.52 128.59 97.00 131.00
M 117.00 135.00 
C 113.83 134.39 109.35 136.25 107.00 134.00
C 108.77 130.20 116.79 129.51 117.00 135.00 Z"/>
</g>
<g fill="None" fill-opacity="0.0" stroke="#000000" stroke-opacity="0.00" stroke-width="0.3"><path d="
M 265.00 127.00 
C 261.81 131.30 259.00 138.51 268.00 136.00
C 268.01 132.68 265.90 130.06 265.00 127.00 Z"/>
</g>
<g fill="None" fill-opacity="0.0" stroke="#4490BD" stroke-opacity="0.82" stroke-width="0.3"><path d="
M 327.00 127.00 
C 319.52 124.03 319.59 144.14 325.33 145.67 C 331.07 147.20 341.73 146.57 341.00 140.00
C 342.81 144.52 350.20 150.08 355.91 144.92 C 361.63 139.76 346.29 144.25 346.00 139.00
C 350.33 139.00 354.67 139.00 359.00 139.00
C 362.92 125.97 345.28 123.54 340.00 132.00
C 340.54 128.98 339.78 125.76 336.00 127.00
C 335.60 131.17 337.63 141.76 331.03 141.97 C 324.42 142.19 327.78 130.79 327.00 127.00
M 355.00 135.00 
C 352.00 135.00 349.00 135.00 346.00 135.00
C 344.99 129.63 355.32 129.59 355.00 135.00 Z"/>
</g>
<g fill="None" fill-opacity="0.0" stroke="#4194CA" stroke-opacity="0.64" stroke-width="0.3"><path d="
M 315.00 129.00 
C 315.57 131.27 318.26 128.57 316.00 128.00
C 315.75 128.24 315.10 129.09 315.00 129.00 Z"/>
</g>
<g fill="None" fill-opacity="0.0" stroke="#000000" stroke-opacity="0.00" stroke-width="0.3"><path d="
M 58.00 131.00 
C 51.36 128.53 46.63 138.87 53.00 142.00 C 59.37 145.13 64.07 133.26 58.00 131.00 Z"/>
</g>
<g fill="None" fill-opacity="0.0" stroke="#000000" stroke-opacity="0.00" stroke-width="0.3"><path d="
M 97.00 131.00 
C 90.52 128.59 86.06 138.36 92.33 141.67 C 98.60 144.98 102.91 133.20 97.00 131.00 Z"/>
</g>
<g fill="None" fill-opacity="0.0" stroke="#000000" stroke-opacity="0.00" stroke-width="0.3"><path d="
M 117.00 135.00 
C 116.79 129.51 108.77 130.20 107.00 134.00
C 109.35 136.25 113.83 134.39 117.00 135.00 Z"/>
</g>
<g fill="None" fill-opacity="0.0" stroke="#000000" stroke-opacity="0.00" stroke-width="0.3"><path d="
M 168.00 135.00 
C 168.14 129.65 158.86 129.66 159.00 135.00
C 162.00 135.00 165.00 135.00 168.00 135.00 Z"/>
</g>
<g fill="None" fill-opacity="0.0" stroke="#000000" stroke-opacity="0.00" stroke-width="0.3"><path d="
M 185.00 131.00 
C 178.71 128.85 174.22 138.13 180.33 141.67 C 186.44 145.21 191.70 133.28 185.00 131.00 Z"/>
</g>
<g fill="None" fill-opacity="0.0" stroke="#000000" stroke-opacity="0.00" stroke-width="0.3"><path d="
M 203.00 131.00 
C 196.76 129.20 192.43 139.10 199.00 142.00 C 205.57 144.90 209.39 132.84 203.00 131.00 Z"/>
</g>
<g fill="None" fill-opacity="0.0" stroke="#000000" stroke-opacity="0.00" stroke-width="0.3"><path d="
M 313.00 131.00 
C 306.60 128.82 301.92 138.14 308.33 141.67 C 314.74 145.20 319.50 133.22 313.00 131.00 Z"/>
</g>
<g fill="None" fill-opacity="0.0" stroke="#000000" stroke-opacity="0.00" stroke-width="0.3"><path d="
M 355.00 135.00 
C 355.32 129.59 344.99 129.63 346.00 135.00
C 349.00 135.00 352.00 135.00 355.00 135.00 Z"/>
</g>
<g fill="None" fill-opacity="0.0" stroke="#2D81AE" stroke-opacity="0.16" stroke-width="0.3"><path d="
M 172.00 138.00 
C 172.00 138.00 172.95 138.15 173.00 138.00
C 173.00 136.33 173.00 134.67 173.00 133.00
C 173.00 133.00 172.02 133.10 172.00 133.00
C 171.69 133.90 171.69 137.10 172.00 138.00 Z"/>
</g>
<g fill="None" fill-opacity="0.0" stroke="#53A5DB" stroke-opacity="0.64" stroke-width="0.3"><path d="
M 315.00 145.00 
C 315.00 145.00 316.00 144.96 316.00 145.00
C 315.92 144.03 316.16 141.56 315.00 145.00 Z"/>
</g>
<g fill="#000000" fill-opacity="0.00" stroke="None">
<path d="
M 0.00 157.00 
L 483.00 157.00
L 483.00 0.00
L 0.00 0.00
L 0.00 157.00
M 396.00 10.00 
C 395.88 10.47 396.00 11.00 396.00 11.00
C 397.59 14.87 404.16 11.95 407.00 11.00
C 410.22 9.93 413.29 9.65 417.00 9.00
C 418.30 8.77 420.11 8.08 422.00 8.00
C 443.67 7.13 461.22 19.22 472.00 37.00
C 474.89 41.76 476.06 44.20 477.00 50.00
C 477.52 53.20 477.89 57.18 478.00 61.00
C 478.18 62.54 479.11 64.78 479.00 67.00
C 479.13 70.43 477.52 75.07 477.00 78.00
C 474.20 93.62 461.70 108.06 447.00 114.00
C 447.39 114.87 448.41 115.92 448.00 117.00
C 452.89 117.48 461.40 121.85 453.77 125.77 C 446.14 129.69 444.26 130.01 435.93 131.93 C 427.59 133.84 432.45 136.49 441.07 137.93 C 449.69 139.37 446.08 147.96 438.93 147.93 C 431.77 147.89 423.29 150.17 417.00 149.00 C 410.71 147.83 400.70 148.82 401.78 141.78 C 402.86 134.73 416.06 139.77 417.00 133.00
C 405.08 130.47 392.84 126.54 382.77 119.23 C 372.70 111.92 366.11 103.35 360.70 92.30 C 355.28 81.26 353.99 61.91 355.93 49.93 C 357.86 37.94 365.09 25.62 372.25 17.25 C 379.40 8.88 396.43 -5.40 396.00 10.00
M 109.00 30.00 
C 104.98 34.72 100.19 43.20 93.75 45.75 C 87.31 48.30 81.44 36.68 72.98 37.02 C 64.51 37.37 54.25 37.09 47.75 43.75 C 41.26 50.42 39.33 59.21 40.00 68.00 C 40.67 76.79 44.46 83.86 51.75 88.25 C 59.03 92.65 70.64 94.42 78.67 90.67 C 86.71 86.93 79.56 69.30 82.00 62.00
C 90.33 62.00 98.67 62.00 107.00 62.00
C 106.44 73.16 107.75 88.23 107.00 99.00 C 106.25 109.77 93.57 110.67 84.93 113.93 C 76.28 117.18 60.21 116.77 51.00 115.00 C 41.79 113.23 33.74 108.62 26.75 102.25 C 19.77 95.87 15.27 88.82 12.22 79.78 C 9.18 70.73 10.02 56.96 12.93 47.93 C 15.83 38.90 20.37 32.30 27.75 25.75 C 35.14 19.20 43.22 15.90 53.01 14.01 C 62.79 12.12 76.98 12.54 86.22 15.78 C 95.47 19.01 102.20 22.65 109.00 30.00
M 136.00 114.00 
C 136.00 81.00 136.00 48.00 136.00 15.00
C 163.45 16.58 202.91 8.35 223.75 28.25 C 244.59 48.15 245.12 80.04 224.25 100.25 C 203.37 120.45 163.67 112.65 136.00 114.00
M 363.00 114.00 
C 354.74 114.43 347.35 113.43 339.00 114.00 C 330.65 114.57 330.26 107.45 327.68 100.32 C 325.09 93.19 316.48 94.89 309.00 95.00 C 301.52 95.11 291.69 94.92 284.00 95.00
C 282.13 101.47 278.60 107.40 277.00 114.00
C 267.00 114.00 257.00 114.00 247.00 114.00
C 251.15 106.44 253.45 97.94 257.32 90.32 C 261.19 82.70 264.45 73.53 267.98 65.98 C 271.50 58.42 275.20 48.84 278.92 41.92 C 282.65 35.01 285.29 23.11 289.77 17.77 C 294.26 12.43 314.98 12.16 319.92 17.08 C 324.85 22.01 326.95 34.34 330.92 41.08 C 334.89 47.82 337.84 57.83 341.77 65.23 C 345.70 72.63 348.32 82.04 352.31 89.69 C 356.29 97.35 359.01 106.24 363.00 114.00
M 121.00 97.00 
C 131.26 98.49 127.32 115.77 117.33 112.67 C 107.34 109.57 111.60 95.64 121.00 97.00
M 240.00 97.00 
C 249.04 99.29 246.06 115.39 236.00 113.00 C 225.93 110.61 229.46 94.33 240.00 97.00
M 173.00 138.00 
C 172.95 138.15 172.00 138.00 172.00 138.00
C 168.54 140.56 162.34 137.34 159.00 140.00
C 162.00 143.21 166.77 142.19 170.00 140.00
C 173.30 148.69 155.99 147.71 154.00 141.00
C 148.60 147.68 139.76 145.82 132.00 146.00
C 132.00 137.67 132.00 129.33 132.00 121.00
C 140.38 120.69 152.93 119.53 155.00 130.00
C 159.73 125.79 171.12 124.81 172.00 133.00
C 172.02 133.10 173.00 133.00 173.00 133.00
C 173.00 128.33 173.00 123.67 173.00 119.00
C 179.28 117.45 176.34 125.44 177.00 129.00
C 181.12 125.97 188.44 125.91 191.00 131.00
C 195.82 127.36 205.02 123.97 209.00 131.00
C 209.91 128.24 211.06 125.93 215.00 127.00
C 216.07 130.86 212.06 142.09 219.03 141.97 C 225.99 141.85 223.69 131.35 224.00 127.00
C 228.37 127.83 232.43 127.95 231.00 122.00
C 238.11 119.79 233.75 130.79 241.00 128.00
C 242.44 132.32 237.18 129.81 236.00 132.00
C 236.00 135.33 236.00 138.67 236.00 142.00
C 239.10 141.35 242.07 142.23 241.00 146.00
C 229.25 149.72 231.51 137.43 230.00 131.00
C 227.76 135.09 229.60 141.16 229.00 146.00
C 223.88 142.84 212.64 150.49 211.00 141.00
C 207.38 147.57 196.18 148.04 192.00 142.00
C 187.48 149.75 178.43 143.14 173.00 146.00
C 173.00 143.33 173.00 140.67 173.00 138.00
M 315.00 129.00 
C 315.10 129.09 315.75 128.24 316.00 128.00
C 317.31 126.76 319.06 126.93 321.00 127.00
C 321.00 135.67 321.00 144.33 321.00 153.00
C 315.05 154.93 315.79 148.97 316.00 145.00
C 316.00 144.96 315.00 145.00 315.00 145.00
C 309.73 146.68 302.66 147.15 301.00 140.00
C 299.09 142.13 301.27 147.67 296.00 146.00
C 296.00 141.00 296.00 136.00 296.00 131.00
C 288.43 131.52 290.04 140.53 290.00 146.00
C 281.34 147.76 286.30 136.00 285.00 131.00
C 279.11 132.48 283.23 141.40 282.00 146.00
C 279.00 146.00 276.00 146.00 273.00 146.00
C 272.31 138.28 263.36 141.72 258.00 141.00
C 258.63 144.79 255.60 146.96 252.00 146.00
C 256.56 137.93 257.01 121.25 268.00 121.00
C 269.62 129.08 274.90 136.02 277.00 144.00
C 277.96 140.93 280.40 130.91 275.00 131.00
C 276.66 127.59 277.43 123.33 280.25 120.25 C 283.07 117.17 291.37 119.35 288.00 124.00
C 285.18 123.13 280.91 124.82 283.00 128.00
C 289.26 128.79 300.42 123.16 301.00 133.00
C 301.80 126.98 311.50 124.45 315.00 129.00
M 300.00 119.00 
C 302.20 120.25 299.99 126.41 296.77 124.21 C 293.55 122.01 296.69 117.12 300.00 119.00
M 32.00 133.00 
C 41.03 135.60 34.82 146.86 27.00 146.00 C 19.17 145.13 12.84 142.93 13.00 134.00 C 13.17 125.06 17.18 122.17 26.00 121.00 C 34.83 119.84 37.88 129.89 28.97 126.03 C 20.07 122.17 15.96 131.42 18.93 138.07 C 21.89 144.73 36.11 142.46 32.00 133.00
M 63.00 131.00 
C 63.91 128.24 65.06 125.93 69.00 127.00
C 69.91 130.81 66.27 142.16 73.03 141.97 C 79.79 141.79 77.68 131.23 78.00 127.00
C 87.48 125.96 81.19 140.07 83.00 146.00
C 77.40 143.92 66.04 149.84 65.00 141.00
C 59.60 151.96 39.46 144.04 46.00 132.00
C 39.48 132.97 42.80 141.44 42.00 146.00
C 32.52 147.04 38.81 132.93 37.00 127.00
C 44.90 130.82 56.16 122.47 63.00 131.00
M 103.00 131.00 
C 109.27 122.79 124.76 127.43 121.00 139.00
C 116.83 139.64 111.34 137.71 108.00 140.00
C 109.72 143.25 122.71 140.00 118.74 144.75 C 114.77 149.50 106.27 145.35 104.00 142.00
C 100.33 146.70 94.19 146.90 89.00 145.00
C 89.24 149.04 89.98 154.80 84.00 153.00
C 84.00 144.33 84.00 135.67 84.00 127.00
C 89.76 129.91 98.25 123.27 103.00 131.00
M 327.00 127.00 
C 327.78 130.79 324.42 142.19 331.03 141.97 C 337.63 141.76 335.60 131.17 336.00 127.00
C 339.78 125.76 340.54 128.98 340.00 132.00
C 345.28 123.54 362.92 125.97 359.00 139.00
C 354.67 139.00 350.33 139.00 346.00 139.00
C 346.29 144.25 361.63 139.76 355.91 144.92 C 350.20 150.08 342.81 144.52 341.00 140.00
C 341.73 146.57 331.07 147.20 325.33 145.67 C 319.59 144.14 319.52 124.03 327.00 127.00 Z"/>
</g>
<g fill="#D8DCE0" fill-opacity="0.84" stroke="None">
<path d="
M 448.00 117.00 
C 447.97 117.00 446.77 118.14 446.00 118.00
C 438.91 127.54 419.51 125.53 407.78 123.22 C 396.05 120.91 386.69 114.42 378.25 105.75 C 369.80 97.08 365.00 86.16 362.67 74.33 C 360.35 62.50 362.87 44.90 368.92 34.92 C 374.97 24.95 382.11 15.11 393.00 11.00
C 393.68 10.74 394.78 10.10 396.00 10.00
C 396.43 -5.40 379.40 8.88 372.25 17.25 C 365.09 25.62 357.86 37.94 355.93 49.93 C 353.99 61.91 355.28 81.26 360.70 92.30 C 366.11 103.35 372.70 111.92 382.77 119.23 C 392.84 126.54 405.08 130.47 417.00 133.00
C 416.06 139.77 402.86 134.73 401.78 141.78 C 400.70 148.82 410.71 147.83 417.00 149.00 C 423.29 150.17 431.77 147.89 438.93 147.93 C 446.08 147.96 449.69 139.37 441.07 137.93 C 432.45 136.49 427.59 133.84 435.93 131.93 C 444.26 130.01 446.14 129.69 453.77 125.77 C 461.40 121.85 452.89 117.48 448.00 117.00 Z"/>
</g>
<g fill="#7EB2D1" fill-opacity="0.10" stroke="None">
<path d="
M 417.00 9.00 
C 417.22 8.86 421.93 8.01 422.00 8.00
C 420.11 8.08 418.30 8.77 417.00 9.00 Z"/>
</g>
<g fill="#56B1E7" fill-opacity="0.98" stroke="None">
<path d="
M 417.00 9.00 
C 416.79 9.14 416.59 11.72 416.00 12.00
C 419.88 12.67 422.77 15.74 422.00 20.00
C 420.22 18.53 417.93 21.04 416.00 19.00
C 417.43 22.53 418.60 25.69 417.00 30.00
C 414.80 28.41 415.82 27.07 413.00 26.00
C 407.80 29.53 399.06 29.67 394.00 35.00
C 393.71 28.43 381.77 30.25 384.00 37.00
C 390.77 34.27 387.57 40.70 388.00 45.00
C 384.34 43.15 381.72 33.42 377.00 34.00
C 371.92 42.12 368.18 49.76 368.00 60.00
C 368.16 62.04 368.15 65.02 368.00 67.00
C 368.62 102.52 409.59 130.02 443.00 116.00
C 444.11 115.53 445.63 114.56 447.00 114.00
C 461.70 108.06 474.20 93.62 477.00 78.00
C 476.96 77.65 476.09 77.25 476.00 77.00
C 471.61 76.20 469.11 79.78 466.00 82.00
C 465.83 79.71 466.82 67.86 462.92 68.08 C 459.01 68.31 454.36 74.12 450.00 73.00
C 451.42 75.64 441.65 82.91 439.74 87.74 C 437.84 92.57 423.41 100.28 423.01 91.99 C 422.61 83.70 427.56 75.77 429.00 68.00
C 422.99 64.91 413.15 61.54 420.00 53.00
C 422.54 48.08 429.80 47.39 429.00 42.00
C 430.27 41.58 432.03 38.65 433.00 41.00
C 434.77 39.02 437.37 35.90 437.00 32.00
C 439.71 33.76 439.44 39.46 445.00 36.00
C 437.73 28.93 463.16 29.60 457.00 37.00
C 462.25 35.18 468.19 40.74 472.00 37.00
C 461.22 19.22 443.67 7.13 422.00 8.00
C 421.93 8.01 417.22 8.86 417.00 9.00
M 384.00 92.00 
C 377.37 84.58 387.28 76.37 386.78 68.78 C 386.28 61.19 384.93 52.52 388.00 46.00
C 391.99 46.06 400.64 48.22 401.25 53.75 C 401.87 59.27 410.61 63.73 407.74 68.74 C 404.87 73.75 399.83 76.02 395.25 79.25 C 390.67 82.48 384.56 85.23 384.00 92.00
M 445.00 88.00 
C 444.30 91.01 441.04 94.37 438.00 95.00
C 438.68 91.38 441.42 88.75 445.00 88.00 Z"/>
</g>
<g fill="#B9DEF1" fill-opacity="0.96" stroke="None">
<path d="
M 407.00 11.00 
C 412.51 12.01 406.86 15.30 404.00 15.00
C 403.40 18.12 407.18 19.66 406.00 23.00
C 410.65 22.27 414.51 18.43 417.00 24.00
C 416.16 25.11 414.54 26.04 413.00 26.00
C 415.82 27.07 414.80 28.41 417.00 30.00
C 418.60 25.69 417.43 22.53 416.00 19.00
C 417.93 21.04 420.22 18.53 422.00 20.00
C 422.77 15.74 419.88 12.67 416.00 12.00
C 416.59 11.72 416.79 9.14 417.00 9.00
C 413.29 9.65 410.22 9.93 407.00 11.00
M 418.00 16.00 
C 415.40 19.20 414.65 13.69 418.00 16.00
M 414.00 18.00 
C 411.32 22.21 405.49 21.01 405.00 16.00
C 408.12 15.91 411.85 15.87 414.00 18.00 Z"/>
</g>
<g fill="#BEBDBE" fill-opacity="0.57" stroke="None">
<path d="
M 393.00 11.00 
C 392.70 12.52 393.95 13.30 394.00 14.00
C 394.57 13.11 395.69 12.25 396.00 11.00
C 396.00 11.00 395.88 10.47 396.00 10.00
C 394.78 10.10 393.68 10.74 393.00 11.00 Z"/>
</g>
<g fill="#000000" fill-opacity="0.00" stroke="None">
<path d="
M 446.00 118.00 
C 445.20 117.86 444.55 116.17 443.00 116.00
C 409.59 130.02 368.62 102.52 368.00 67.00
C 367.96 64.67 367.96 62.33 368.00 60.00
C 368.18 49.76 371.92 42.12 377.00 34.00
C 381.59 26.66 389.54 20.97 394.00 14.00
C 393.95 13.30 392.70 12.52 393.00 11.00
C 382.11 15.11 374.97 24.95 368.92 34.92 C 362.87 44.90 360.35 62.50 362.67 74.33 C 365.00 86.16 369.80 97.08 378.25 105.75 C 386.69 114.42 396.05 120.91 407.78 123.22 C 419.51 125.53 438.91 127.54 446.00 118.00 Z"/>
</g>
<g fill="#E3EDF2" fill-opacity="0.94" stroke="None">
<path d="
M 394.00 14.00 
C 389.54 20.97 381.59 26.66 377.00 34.00
C 381.72 33.42 384.34 43.15 388.00 45.00
C 387.57 40.70 390.77 34.27 384.00 37.00
C 381.77 30.25 393.71 28.43 394.00 35.00
C 399.06 29.67 407.80 29.53 413.00 26.00
C 414.54 26.04 416.16 25.11 417.00 24.00
C 414.51 18.43 410.65 22.27 406.00 23.00
C 407.18 19.66 403.40 18.12 404.00 15.00
C 406.86 15.30 412.51 12.01 407.00 11.00
C 404.16 11.95 397.59 14.87 396.00 11.00
C 395.69 12.25 394.57 13.11 394.00 14.00 Z"/>
</g>
<g fill="#3E94C8" fill-opacity="0.96" stroke="None">
<path d="
M 109.00 30.00 
C 102.20 22.65 95.47 19.01 86.22 15.78 C 76.98 12.54 62.79 12.12 53.01 14.01 C 43.22 15.90 35.14 19.20 27.75 25.75 C 20.37 32.30 15.83 38.90 12.93 47.93 C 10.02 56.96 9.18 70.73 12.22 79.78 C 15.27 88.82 19.77 95.87 26.75 102.25 C 33.74 108.62 41.79 113.23 51.00 115.00 C 60.21 116.77 76.28 117.18 84.93 113.93 C 93.57 110.67 106.25 109.77 107.00 99.00 C 107.75 88.23 106.44 73.16 107.00 62.00
C 98.67 62.00 90.33 62.00 82.00 62.00
C 79.56 69.30 86.71 86.93 78.67 90.67 C 70.64 94.42 59.03 92.65 51.75 88.25 C 44.46 83.86 40.67 76.79 40.00 68.00 C 39.33 59.21 41.26 50.42 47.75 43.75 C 54.25 37.09 64.51 37.37 72.98 37.02 C 81.44 36.68 87.31 48.30 93.75 45.75 C 100.19 43.20 104.98 34.72 109.00 30.00 Z"/>
</g>
<g fill="#3D94C8" fill-opacity="0.97" stroke="None">
<path d="
M 136.00 114.00 
C 163.67 112.65 203.37 120.45 224.25 100.25 C 245.12 80.04 244.59 48.15 223.75 28.25 C 202.91 8.35 163.45 16.58 136.00 15.00
C 136.00 48.00 136.00 81.00 136.00 114.00
M 165.00 91.00 
C 165.00 73.33 165.00 55.67 165.00 38.00
C 185.32 35.25 209.52 39.84 209.99 64.01 C 210.46 88.17 185.75 94.70 165.00 91.00 Z"/>
</g>
<g fill="#3E94C8" fill-opacity="0.97" stroke="None">
<path d="
M 363.00 114.00 
C 359.01 106.24 356.29 97.35 352.31 89.69 C 348.32 82.04 345.70 72.63 341.77 65.23 C 337.84 57.83 334.89 47.82 330.92 41.08 C 326.95 34.34 324.85 22.01 319.92 17.08 C 314.98 12.16 294.26 12.43 289.77 17.77 C 285.29 23.11 282.65 35.01 278.92 41.92 C 275.20 48.84 271.50 58.42 267.98 65.98 C 264.45 73.53 261.19 82.70 257.32 90.32 C 253.45 97.94 251.15 106.44 247.00 114.00
C 257.00 114.00 267.00 114.00 277.00 114.00
C 278.60 107.40 282.13 101.47 284.00 95.00
C 291.69 94.92 301.52 95.11 309.00 95.00 C 316.48 94.89 325.09 93.19 327.68 100.32 C 330.26 107.45 330.65 114.57 339.00 114.00 C 347.35 113.43 354.74 114.43 363.00 114.00
M 317.00 74.00 
C 309.00 74.00 301.00 74.00 293.00 74.00
C 295.80 63.73 301.51 54.36 304.00 44.00
C 309.59 52.91 312.56 64.11 317.00 74.00 Z"/>
</g>
<g fill="#69A9C7" fill-opacity="1.00" stroke="None">
<path d="
M 418.00 16.00 
C 414.65 13.69 415.40 19.20 418.00 16.00 Z"/>
</g>
<g fill="#62B2DF" fill-opacity="1.00" stroke="None">
<path d="
M 414.00 18.00 
C 411.85 15.87 408.12 15.91 405.00 16.00
C 405.49 21.01 411.32 22.21 414.00 18.00 Z"/>
</g>
<g fill="#E5EEF2" fill-opacity="0.99" stroke="None">
<path d="
M 433.00 41.00 
C 425.82 49.07 443.92 37.86 446.00 48.00
C 449.95 44.81 455.43 46.51 456.00 52.00
C 447.33 49.48 453.80 52.90 452.00 57.00 C 450.19 61.10 449.21 65.58 450.00 71.00
C 453.28 71.39 456.16 70.29 459.00 69.00
C 459.06 65.87 454.49 65.81 456.00 62.00
C 462.28 65.13 469.20 70.70 467.00 79.00
C 468.93 78.34 469.67 75.61 472.00 76.00
C 476.11 70.12 476.72 56.62 477.00 50.00
C 476.06 44.20 474.89 41.76 472.00 37.00
C 468.19 40.74 462.25 35.18 457.00 37.00
C 463.16 29.60 437.73 28.93 445.00 36.00
C 439.44 39.46 439.71 33.76 437.00 32.00
C 437.37 35.90 434.77 39.02 433.00 41.00
M 461.00 58.00 
C 457.53 58.14 459.56 53.15 459.00 51.00
C 463.70 49.93 459.88 55.38 461.00 58.00 Z"/>
</g>
<g fill="#000000" fill-opacity="0.00" stroke="None">
<path d="
M 165.00 91.00 
C 185.75 94.70 210.46 88.17 209.99 64.01 C 209.52 39.84 185.32 35.25 165.00 38.00
C 165.00 55.67 165.00 73.33 165.00 91.00 Z"/>
</g>
<g fill="#B3DAEE" fill-opacity="1.00" stroke="None">
<path d="
M 420.00 53.00 
C 425.13 46.81 438.70 43.76 440.00 55.00
C 443.39 54.05 445.65 56.15 448.00 58.00
C 446.67 62.63 445.73 69.78 450.00 73.00
C 454.36 74.12 459.01 68.31 462.92 68.08 C 466.82 67.86 465.83 79.71 466.00 82.00
C 469.11 79.78 471.61 76.20 476.00 77.00
C 475.65 76.04 475.69 74.90 475.00 74.00
C 473.87 74.57 473.88 76.52 472.00 76.00
C 469.67 75.61 468.93 78.34 467.00 79.00
C 469.20 70.70 462.28 65.13 456.00 62.00
C 454.49 65.81 459.06 65.87 459.00 69.00
C 456.16 70.29 453.28 71.39 450.00 71.00
C 449.21 65.58 450.19 61.10 452.00 57.00 C 453.80 52.90 447.33 49.48 456.00 52.00
C 455.43 46.51 449.95 44.81 446.00 48.00
C 443.92 37.86 425.82 49.07 433.00 41.00
C 432.03 38.65 430.27 41.58 429.00 42.00
C 429.80 47.39 422.54 48.08 420.00 53.00
M 451.00 54.00 
C 449.69 61.21 444.50 51.23 441.00 54.00
C 439.75 49.60 437.43 47.26 434.00 45.00
C 443.08 42.51 443.19 52.18 451.00 54.00 Z"/>
</g>
<g fill="#000000" fill-opacity="0.00" stroke="None">
<path d="
M 317.00 74.00 
C 312.56 64.11 309.59 52.91 304.00 44.00
C 301.51 54.36 295.80 63.73 293.00 74.00
C 301.00 74.00 309.00 74.00 317.00 74.00 Z"/>
</g>
<g fill="#67B2DF" fill-opacity="1.00" stroke="None">
<path d="
M 451.00 54.00 
C 443.19 52.18 443.08 42.51 434.00 45.00
C 437.43 47.26 439.75 49.60 441.00 54.00
C 444.50 51.23 449.69 61.21 451.00 54.00 Z"/>
</g>
<g fill="#DEEDF4" fill-opacity="1.00" stroke="None">
<path d="
M 384.00 92.00 
C 384.56 85.23 390.67 82.48 395.25 79.25 C 399.83 76.02 404.87 73.75 407.74 68.74 C 410.61 63.73 401.87 59.27 401.25 53.75 C 400.64 48.22 391.99 46.06 388.00 46.00
C 384.93 52.52 386.28 61.19 386.78 68.78 C 387.28 76.37 377.37 84.58 384.00 92.00 Z"/>
</g>
<g fill="#E5EEF2" fill-opacity="1.00" stroke="None">
<path d="
M 420.00 53.00 
C 413.15 61.54 422.99 64.91 429.00 68.00
C 427.56 75.77 422.61 83.70 423.01 91.99 C 423.41 100.28 437.84 92.57 439.74 87.74 C 441.65 82.91 451.42 75.64 450.00 73.00
C 445.73 69.78 446.67 62.63 448.00 58.00
C 445.65 56.15 443.39 54.05 440.00 55.00
C 438.70 43.76 425.13 46.81 420.00 53.00 Z"/>
</g>
<g fill="#C0C6CF" fill-opacity="0.86" stroke="None">
<path d="
M 472.00 76.00 
C 473.88 76.52 473.87 74.57 475.00 74.00
C 475.69 74.90 475.65 76.04 476.00 77.00
C 476.09 77.25 476.96 77.65 477.00 78.00
C 477.52 75.07 479.13 70.43 479.00 67.00
C 478.95 65.77 478.05 62.91 478.00 61.00
C 477.89 57.18 477.52 53.20 477.00 50.00
C 476.72 56.62 476.11 70.12 472.00 76.00 Z"/>
</g>
<g fill="#8EB8CF" fill-opacity="1.00" stroke="None">
<path d="
M 461.00 58.00 
C 459.88 55.38 463.70 49.93 459.00 51.00
C 459.56 53.15 457.53 58.14 461.00 58.00 Z"/>
</g>
<g fill="#8AC1E5" fill-opacity="0.76" stroke="None">
<path d="
M 368.00 67.00 
C 368.15 65.02 368.16 62.04 368.00 60.00
C 367.96 62.33 367.96 64.67 368.00 67.00 Z"/>
</g>
<g fill="#FFFFFF" fill-opacity="0.00" stroke="None">
<path d="
M 479.00 67.00 
C 479.11 64.78 478.18 62.54 478.00 61.00
C 478.05 62.91 478.95 65.77 479.00 67.00 Z"/>
</g>
<g fill="#BFEEFE" fill-opacity="1.00" stroke="None">
<path d="
M 445.00 88.00 
C 441.42 88.75 438.68 91.38 438.00 95.00
C 441.04 94.37 444.30 91.01 445.00 88.00 Z"/>
</g>
<g fill="#3F8FBF" fill-opacity="0.88" stroke="None">
<path d="
M 121.00 97.00 
C 111.60 95.64 107.34 109.57 117.33 112.67 C 127.32 115.77 131.26 98.49 121.00 97.00 Z"/>
</g>
<g fill="#3F8FC0" fill-opacity="0.88" stroke="None">
<path d="
M 240.00 97.00 
C 229.46 94.33 225.93 110.61 236.00 113.00 C 246.06 115.39 249.04 99.29 240.00 97.00 Z"/>
</g>
<g fill="#77A3BA" fill-opacity="0.19" stroke="None">
<path d="
M 443.00 116.00 
C 444.55 116.17 445.20 117.86 446.00 118.00
C 446.77 118.14 447.97 117.00 448.00 117.00
C 448.41 115.92 447.39 114.87 447.00 114.00
C 445.63 114.56 444.11 115.53 443.00 116.00 Z"/>
</g>
<g fill="#448FBD" fill-opacity="0.83" stroke="None">
<path d="
M 173.00 133.00 
C 173.00 134.67 173.00 136.33 173.00 138.00
C 173.00 140.67 173.00 143.33 173.00 146.00
C 178.43 143.14 187.48 149.75 192.00 142.00
C 196.18 148.04 207.38 147.57 211.00 141.00
C 212.64 150.49 223.88 142.84 229.00 146.00
C 229.60 141.16 227.76 135.09 230.00 131.00
C 231.51 137.43 229.25 149.72 241.00 146.00
C 242.07 142.23 239.10 141.35 236.00 142.00
C 236.00 138.67 236.00 135.33 236.00 132.00
C 237.18 129.81 242.44 132.32 241.00 128.00
C 233.75 130.79 238.11 119.79 231.00 122.00
C 232.43 127.95 228.37 127.83 224.00 127.00
C 223.69 131.35 225.99 141.85 219.03 141.97 C 212.06 142.09 216.07 130.86 215.00 127.00
C 211.06 125.93 209.91 128.24 209.00 131.00
C 205.02 123.97 195.82 127.36 191.00 131.00
C 188.44 125.91 181.12 125.97 177.00 129.00
C 176.34 125.44 179.28 117.45 173.00 119.00
C 173.00 123.67 173.00 128.33 173.00 133.00
M 185.00 131.00 
C 191.70 133.28 186.44 145.21 180.33 141.67 C 174.22 138.13 178.71 128.85 185.00 131.00
M 203.00 131.00 
C 209.39 132.84 205.57 144.90 199.00 142.00 C 192.43 139.10 196.76 129.20 203.00 131.00 Z"/>
</g>
<g fill="#448FBD" fill-opacity="0.82" stroke="None">
<path d="
M 315.00 145.00 
C 316.16 141.56 315.92 144.03 316.00 145.00
C 315.79 148.97 315.05 154.93 321.00 153.00
C 321.00 144.33 321.00 135.67 321.00 127.00
C 319.06 126.93 317.31 126.76 316.00 128.00
C 318.26 128.57 315.57 131.27 315.00 129.00
C 311.50 124.45 301.80 126.98 301.00 133.00
C 300.42 123.16 289.26 128.79 283.00 128.00
C 280.91 124.82 285.18 123.13 288.00 124.00
C 291.37 119.35 283.07 117.17 280.25 120.25 C 277.43 123.33 276.66 127.59 275.00 131.00
C 280.40 130.91 277.96 140.93 277.00 144.00
C 274.90 136.02 269.62 129.08 268.00 121.00
C 257.01 121.25 256.56 137.93 252.00 146.00
C 255.60 146.96 258.63 144.79 258.00 141.00
C 263.36 141.72 272.31 138.28 273.00 146.00
C 276.00 146.00 279.00 146.00 282.00 146.00
C 283.23 141.40 279.11 132.48 285.00 131.00
C 286.30 136.00 281.34 147.76 290.00 146.00
C 290.04 140.53 288.43 131.52 296.00 131.00
C 296.00 136.00 296.00 141.00 296.00 146.00
C 301.27 147.67 299.09 142.13 301.00 140.00
C 302.66 147.15 309.73 146.68 315.00 145.00
M 265.00 127.00 
C 265.90 130.06 268.01 132.68 268.00 136.00
C 259.00 138.51 261.81 131.30 265.00 127.00
M 313.00 131.00 
C 319.50 133.22 314.74 145.20 308.33 141.67 C 301.92 138.14 306.60 128.82 313.00 131.00 Z"/>
</g>
<g fill="#4889A8" fill-opacity="0.65" stroke="None">
<path d="
M 300.00 119.00 
C 296.69 117.12 293.55 122.01 296.77 124.21 C 299.99 126.41 302.20 120.25 300.00 119.00 Z"/>
</g>
<g fill="#418CBA" fill-opacity="0.79" stroke="None">
<path d="
M 32.00 133.00 
C 36.11 142.46 21.89 144.73 18.93 138.07 C 15.96 131.42 20.07 122.17 28.97 126.03 C 37.88 129.89 34.83 119.84 26.00 121.00 C 17.18 122.17 13.17 125.06 13.00 134.00 C 12.84 142.93 19.17 145.13 27.00 146.00 C 34.82 146.86 41.03 135.60 32.00 133.00 Z"/>
</g>
<g fill="#438EBC" fill-opacity="0.81" stroke="None">
<path d="
M 172.00 138.00 
C 171.69 137.10 171.69 133.90 172.00 133.00
C 171.12 124.81 159.73 125.79 155.00 130.00
C 152.93 119.53 140.38 120.69 132.00 121.00
C 132.00 129.33 132.00 137.67 132.00 146.00
C 139.76 145.82 148.60 147.68 154.00 141.00
C 155.99 147.71 173.30 148.69 170.00 140.00
C 166.77 142.19 162.00 143.21 159.00 140.00
C 162.34 137.34 168.54 140.56 172.00 138.00
M 137.00 142.00 
C 137.00 136.33 137.00 130.67 137.00 125.00
C 154.32 120.20 154.49 147.21 137.00 142.00
M 168.00 135.00 
C 165.00 135.00 162.00 135.00 159.00 135.00
C 158.86 129.66 168.14 129.65 168.00 135.00 Z"/>
</g>
<g fill="#000000" fill-opacity="0.00" stroke="None">
<path d="
M 137.00 142.00 
C 154.49 147.21 154.32 120.20 137.00 125.00
C 137.00 130.67 137.00 136.33 137.00 142.00 Z"/>
</g>
<g fill="#448FBD" fill-opacity="0.81" stroke="None">
<path d="
M 63.00 131.00 
C 56.16 122.47 44.90 130.82 37.00 127.00
C 38.81 132.93 32.52 147.04 42.00 146.00
C 42.80 141.44 39.48 132.97 46.00 132.00
C 39.46 144.04 59.60 151.96 65.00 141.00
C 66.04 149.84 77.40 143.92 83.00 146.00
C 81.19 140.07 87.48 125.96 78.00 127.00
C 77.68 131.23 79.79 141.79 73.03 141.97 C 66.27 142.16 69.91 130.81 69.00 127.00
C 65.06 125.93 63.91 128.24 63.00 131.00
M 58.00 131.00 
C 64.07 133.26 59.37 145.13 53.00 142.00 C 46.63 138.87 51.36 128.53 58.00 131.00 Z"/>
</g>
<g fill="#428EBD" fill-opacity="0.79" stroke="None">
<path d="
M 103.00 131.00 
C 98.25 123.27 89.76 129.91 84.00 127.00
C 84.00 135.67 84.00 144.33 84.00 153.00
C 89.98 154.80 89.24 149.04 89.00 145.00
C 94.19 146.90 100.33 146.70 104.00 142.00
C 106.27 145.35 114.77 149.50 118.74 144.75 C 122.71 140.00 109.72 143.25 108.00 140.00
C 111.34 137.71 116.83 139.64 121.00 139.00
C 124.76 127.43 109.27 122.79 103.00 131.00
M 97.00 131.00 
C 102.91 133.20 98.60 144.98 92.33 141.67 C 86.06 138.36 90.52 128.59 97.00 131.00
M 117.00 135.00 
C 113.83 134.39 109.35 136.25 107.00 134.00
C 108.77 130.20 116.79 129.51 117.00 135.00 Z"/>
</g>
<g fill="#000000" fill-opacity="0.00" stroke="None">
<path d="
M 265.00 127.00 
C 261.81 131.30 259.00 138.51 268.00 136.00
C 268.01 132.68 265.90 130.06 265.00 127.00 Z"/>
</g>
<g fill="#4490BD" fill-opacity="0.82" stroke="None">
<path d="
M 327.00 127.00 
C 319.52 124.03 319.59 144.14 325.33 145.67 C 331.07 147.20 341.73 146.57 341.00 140.00
C 342.81 144.52 350.20 150.08 355.91 144.92 C 361.63 139.76 346.29 144.25 346.00 139.00
C 350.33 139.00 354.67 139.00 359.00 139.00
C 362.92 125.97 345.28 123.54 340.00 132.00
C 340.54 128.98 339.78 125.76 336.00 127.00
C 335.60 131.17 337.63 141.76 331.03 141.97 C 324.42 142.19 327.78 130.79 327.00 127.00
M 355.00 135.00 
C 352.00 135.00 349.00 135.00 346.00 135.00
C 344.99 129.63 355.32 129.59 355.00 135.00 Z"/>
</g>
<g fill="#4194CA" fill-opacity="0.64" stroke="None">
<path d="
M 315.00 129.00 
C 315.57 131.27 318.26 128.57 316.00 128.00
C 315.75 128.24 315.10 129.09 315.00 129.00 Z"/>
</g>
<g fill="#000000" fill-opacity="0.00" stroke="None">
<path d="
M 58.00 131.00 
C 51.36 128.53 46.63 138.87 53.00 142.00 C 59.37 145.13 64.07 133.26 58.00 131.00 Z"/>
</g>
<g fill="#000000" fill-opacity="0.00" stroke="None">
<path d="
M 97.00 131.00 
C 90.52 128.59 86.06 138.36 92.33 141.67 C 98.60 144.98 102.91 133.20 97.00 131.00 Z"/>
</g>
<g fill="#000000" fill-opacity="0.00" stroke="None">
<path d="
M 117.00 135.00 
C 116.79 129.51 108.77 130.20 107.00 134.00
C 109.35 136.25 113.83 134.39 117.00 135.00 Z"/>
</g>
<g fill="#000000" fill-opacity="0.00" stroke="None">
<path d="
M 168.00 135.00 
C 168.14 129.65 158.86 129.66 159.00 135.00
C 162.00 135.00 165.00 135.00 168.00 135.00 Z"/>
</g>
<g fill="#000000" fill-opacity="0.00" stroke="None">
<path d="
M 185.00 131.00 
C 178.71 128.85 174.22 138.13 180.33 141.67 C 186.44 145.21 191.70 133.28 185.00 131.00 Z"/>
</g>
<g fill="#000000" fill-opacity="0.00" stroke="None">
<path d="
M 203.00 131.00 
C 196.76 129.20 192.43 139.10 199.00 142.00 C 205.57 144.90 209.39 132.84 203.00 131.00 Z"/>
</g>
<g fill="#000000" fill-opacity="0.00" stroke="None">
<path d="
M 313.00 131.00 
C 306.60 128.82 301.92 138.14 308.33 141.67 C 314.74 145.20 319.50 133.22 313.00 131.00 Z"/>
</g>
<g fill="#000000" fill-opacity="0.00" stroke="None">
<path d="
M 355.00 135.00 
C 355.32 129.59 344.99 129.63 346.00 135.00
C 349.00 135.00 352.00 135.00 355.00 135.00 Z"/>
</g>
<g fill="#2D81AE" fill-opacity="0.16" stroke="None">
<path d="
M 172.00 138.00 
C 172.00 138.00 172.95 138.15 173.00 138.00
C 173.00 136.33 173.00 134.67 173.00 133.00
C 173.00 133.00 172.02 133.10 172.00 133.00
C 171.69 133.90 171.69 137.10 172.00 138.00 Z"/>
</g>
<g fill="#53A5DB" fill-opacity="0.64" stroke="None">
<path d="
M 315.00 145.00 
C 315.00 145.00 316.00 144.96 316.00 145.00
C 315.92 144.03 316.16 141.56 315.00 145.00 Z"/>
</g>
</svg>